<svg width="626" height="88" viewBox="0 0 626 88" fill="none" xmlns="http://www.w3.org/2000/svg">
<g clip-path="url(#clip0_12_4)">
<path d="M92.2531 43.397H109.775V46.8862H102.879V64.6534H99.1492V46.9022H92.2531V43.397Z" fill="white"/>
<path d="M114.629 50.6647C119.162 50.6647 122.072 53.7358 122.072 57.8359C122.072 61.936 119.162 65.0071 114.629 65.0071C110.112 65.0071 107.187 61.936 107.187 57.8359C107.187 53.7358 110.112 50.6647 114.629 50.6647ZM114.629 61.7431C116.783 61.7431 118.359 60.1995 118.359 57.8198C118.359 55.5045 116.751 53.9287 114.629 53.9287C112.572 53.9287 110.932 55.4401 110.932 57.8198C110.932 60.103 112.507 61.7431 114.629 61.7431Z" fill="white"/>
<path d="M125.11 51.0024H128.261L132.906 56.7104L137.311 51.0024H140.381V64.6695H136.893V56.3245L132.858 61.4215H132.762L128.598 56.3084V64.6534H125.11V51.0024Z" fill="white"/>
<path d="M156.263 62.6274C155.106 64.171 153.048 64.991 150.83 64.991C146.393 64.991 143.419 62.129 143.419 57.8198C143.419 53.8483 146.329 50.6486 150.492 50.6486C152.743 50.6486 154.72 51.2275 155.99 52.4977L154.35 55.2633C153.321 54.2664 152.196 53.9287 150.942 53.9287C148.997 53.9287 147.149 55.4241 147.149 57.8198C147.149 60.2477 149.029 61.7431 151.103 61.7431C152.598 61.7431 153.739 61.0517 154.623 60.0709L156.263 62.6274Z" fill="white"/>
<path d="M159.06 51.0024H162.548V64.6695H159.06V51.0024ZM166.744 57.4983L172.627 64.6695H168.078L162.677 57.7716L167.596 51.0024H172L166.744 57.4983Z" fill="white"/>
<path d="M174.701 64.6695V51.0024H178.189V59.6528L184.571 51.0024H188.075V64.6695H184.587V56.019L178.205 64.6695H174.701Z" fill="white"/>
<path d="M191.949 64.6695V51.0024H195.437V59.6528L201.819 51.0024H205.307V64.6695H201.819V56.019L195.437 64.6695H191.949ZM197.173 44.1527C197.173 45.2783 197.591 46.3716 198.749 46.3716C199.777 46.3716 200.211 45.2783 200.211 44.1527H203.394C203.394 46.7575 201.819 48.8639 198.749 48.8639C195.341 48.8639 193.974 46.8058 193.974 44.1527H197.173Z" fill="white"/>
<path d="M215.643 51.0024H224.822V54.2825H219.147V64.6695H215.659V51.0024H215.643Z" fill="white"/>
<path d="M233.197 50.6647C237.73 50.6647 240.639 53.7358 240.639 57.8359C240.639 61.936 237.73 65.0071 233.197 65.0071C228.68 65.0071 225.754 61.936 225.754 57.8359C225.754 53.7358 228.68 50.6647 233.197 50.6647ZM233.197 61.7431C235.351 61.7431 236.926 60.1995 236.926 57.8198C236.926 55.5045 235.319 53.9287 233.197 53.9287C231.139 53.9287 229.5 55.4401 229.5 57.8198C229.5 60.103 231.075 61.7431 233.197 61.7431Z" fill="white"/>
<path d="M255.669 62.6274C254.512 64.171 252.454 64.991 250.236 64.991C245.799 64.991 242.826 62.129 242.826 57.8198C242.826 53.8483 245.735 50.6486 249.898 50.6486C252.149 50.6486 254.126 51.2275 255.396 52.4977L253.756 55.2633C252.728 54.2664 251.602 53.9287 250.349 53.9287C248.404 53.9287 246.555 55.4241 246.555 57.8198C246.555 60.2477 248.436 61.7431 250.509 61.7431C252.004 61.7431 253.146 61.0517 254.03 60.0709L255.669 62.6274Z" fill="white"/>
<path d="M265.877 64.6694C263.867 69.5574 262.598 70.7473 260.588 70.7473C259.35 70.7473 258.434 70.2649 257.647 69.6861L258.772 67.0491C259.141 67.2582 259.656 67.5315 260.202 67.5315C261.087 67.5315 261.713 66.8401 262.292 65.4091L262.598 64.6855L256.28 51.0184H260.476L263.658 58.4951C263.932 59.1705 264.109 59.7975 264.334 60.4728C264.462 59.8297 264.575 59.1705 264.816 58.463L267.275 51.0184H271.246L265.877 64.6694Z" fill="white"/>
<path d="M270.587 61.4054H272.323C273.287 60.1352 274.059 57.3696 274.236 54.2664L274.445 50.9863H284.524V61.4054H286.806V67.837H283.527V64.6534H273.834V67.837H270.587V61.4054ZM275.956 61.4054H281.019V54.2664H277.676L277.579 55.6653C277.322 58.5595 276.567 60.5693 275.956 61.4054Z" fill="white"/>
<path d="M289.298 51.9671C290.487 51.2757 292.336 50.6647 294.12 50.6647C298.155 50.6647 299.586 52.7228 299.586 56.3406V64.6695H296.547V63.0937C295.824 64.1228 294.361 64.8624 292.513 64.8624C290.021 64.8624 288.237 63.3188 288.237 60.6658C288.237 57.659 290.455 56.228 293.22 56.228C294.442 56.228 295.647 56.63 296.322 57.1124C296.419 54.8291 295.808 53.5911 293.767 53.5911C292.191 53.5911 291.179 54.0734 290.182 54.5397L289.298 51.9671ZM296.306 60.6497V59.2509C295.696 58.8006 294.908 58.5755 293.911 58.5755C292.754 58.5755 291.725 59.1222 291.725 60.2799C291.725 61.309 292.577 61.8878 293.67 61.8878C295.117 61.9039 295.888 61.2607 296.306 60.6497Z" fill="white"/>
<path d="M303.17 51.0024H306.659V52.3048C307.51 51.3883 309.118 50.6647 310.886 50.6647C314.648 50.6647 317.075 53.575 317.075 57.6269C317.075 61.7913 314.214 65.0071 309.841 65.0071C308.62 65.0071 307.446 64.7981 306.659 64.3318V70.7473H303.17V51.0024ZM306.659 55.4241V60.9552C307.591 61.5662 308.395 61.7431 309.536 61.7431C311.963 61.7431 313.362 59.9744 313.362 57.7073C313.362 55.5205 312.092 53.9448 309.777 53.9448C308.604 53.9448 307.51 54.4915 306.659 55.4241Z" fill="white"/>
<path d="M332.105 62.6274C330.948 64.171 328.89 64.991 326.672 64.991C322.235 64.991 319.261 62.129 319.261 57.8198C319.261 53.8483 322.171 50.6486 326.334 50.6486C328.584 50.6486 330.562 51.2275 331.832 52.4977L330.192 55.2633C329.163 54.2664 328.038 53.9287 326.784 53.9287C324.839 53.9287 322.99 55.4241 322.99 57.8198C322.99 60.2477 324.871 61.7431 326.945 61.7431C328.44 61.7431 329.581 61.0517 330.465 60.0709L332.105 62.6274Z" fill="white"/>
<path d="M333.23 51.0024H345.688V54.4915H341.219V64.6695H337.731V54.4915H333.23V51.0024Z" fill="white"/>
<path d="M348.18 51.0024C349.369 50.9702 351.427 50.8577 353.549 50.8577C357.519 50.8577 359.737 51.951 359.737 54.4433C359.737 56.0833 358.548 57.2732 357.182 57.4822V57.5465C359.094 57.9967 360.091 59.1222 360.091 60.698C360.091 63.3992 358.001 64.8303 353.597 64.8303C351.893 64.8303 349.401 64.6855 348.164 64.6855V51.0024H348.18ZM351.668 53.7358V56.7426H353.951C355.108 56.7426 356.04 56.228 356.04 55.1668C356.04 54.1699 355.156 53.6715 353.854 53.6715C353.034 53.6715 352.038 53.7036 351.668 53.7358ZM351.668 58.865V61.9039C352.182 61.9361 353.131 62.0325 353.983 62.0325C355.526 62.0325 356.442 61.3894 356.442 60.4568C356.442 59.4277 355.51 58.8811 353.854 58.8811H351.668V58.865Z" fill="white"/>
<path d="M375.153 63.3027C373.787 64.4604 371.842 65.0071 369.929 65.0071C365.524 65.0071 362.583 62.1451 362.583 57.8359C362.583 53.8644 365.315 50.6647 369.816 50.6647C373.337 50.6647 376.278 53.1891 376.278 57.0159C376.278 57.8681 376.214 58.3826 376.069 58.8971H366.199C366.505 60.9552 368.145 62.0807 370.299 62.0807C371.97 62.0807 373.369 61.4697 374.156 60.8427L375.153 63.3027ZM366.071 56.5496H372.774C372.806 54.8774 371.649 53.575 369.639 53.575C367.55 53.575 366.425 54.7648 366.071 56.5496Z" fill="white"/>
<path d="M388.576 59.4438H382.58V64.6695H379.091V51.0024H382.58V56.1637H388.56V51.0024H392.048V64.6695H388.56V59.4438H388.576Z" fill="white"/>
<path d="M405.422 59.4438H399.442V64.6695H395.954V51.0024H399.442V56.1637H405.422V51.0024H408.91V64.6695H405.422V59.4438Z" fill="white"/>
<path d="M412.8 51.0024H416.288V54.7327H417.992C422.638 54.7327 424.004 57.0481 424.004 59.476C424.004 62.0968 422.365 64.6695 417.719 64.6695H412.8V51.0024ZM416.305 57.5304V61.6306H417.671C419.552 61.6306 420.307 60.8427 420.307 59.5885C420.307 58.3505 419.584 57.5304 417.687 57.5304H416.305ZM425.949 51.0024H429.438V64.6695H425.949V51.0024Z" fill="white"/>
<path d="M433.344 64.6695V51.0024H436.832V59.6528L443.214 51.0024H446.702V64.6695H443.214V56.019L436.832 64.6695H433.344ZM438.552 44.1527C438.552 45.2783 438.97 46.3716 440.127 46.3716C441.156 46.3716 441.59 45.2783 441.59 44.1527H444.773C444.773 46.7575 443.198 48.8639 440.127 48.8639C436.72 48.8639 435.353 46.8058 435.353 44.1527H438.552Z" fill="white"/>
<path d="M464.834 64.6694C462.825 69.5574 461.555 70.7473 459.546 70.7473C458.292 70.7473 457.392 70.2649 456.604 69.6861L457.729 67.0491C458.099 67.2582 458.613 67.5315 459.16 67.5315C460.044 67.5315 460.671 66.8401 461.25 65.4091L461.555 64.6855L455.238 51.0184H459.433L462.616 58.4951C462.889 59.1705 463.066 59.7975 463.291 60.4728C463.42 59.8297 463.532 59.1705 463.773 58.463L466.233 51.0184H470.203L464.834 64.6694Z" fill="white"/>
<path d="M481.777 59.4438H475.797V64.6695H472.309V51.0024H475.797V56.1637H481.777V51.0024H485.265V64.6695H481.777V59.4438Z" fill="white"/>
<path d="M489.155 64.6695V51.0024H492.644V59.6528L499.025 51.0024H502.514V64.6695H499.025V56.019L492.644 64.6695H489.155Z" fill="white"/>
<path d="M506.404 51.0024C507.593 50.9702 509.651 50.8577 511.773 50.8577C515.743 50.8577 517.961 51.951 517.961 54.4433C517.961 56.0833 516.772 57.2732 515.406 57.4822V57.5465C517.318 57.9967 518.315 59.1222 518.315 60.698C518.315 63.3992 516.225 64.8303 511.821 64.8303C510.117 64.8303 507.625 64.6855 506.388 64.6855V51.0024H506.404ZM509.892 53.7358V56.7426H512.175C513.332 56.7426 514.264 56.228 514.264 55.1668C514.264 54.1699 513.38 53.6715 512.078 53.6715C511.258 53.6715 510.262 53.7036 509.892 53.7358ZM509.892 58.865V61.9039C510.406 61.9361 511.355 62.0325 512.207 62.0325C513.75 62.0325 514.666 61.3894 514.666 60.4568C514.666 59.4277 513.718 58.8811 512.078 58.8811H509.892V58.865Z" fill="white"/>
<path d="M533.377 63.3027C532.011 64.4604 530.066 65.0071 528.153 65.0071C523.748 65.0071 520.807 62.1451 520.807 57.8359C520.807 53.8644 523.539 50.6647 528.04 50.6647C531.561 50.6647 534.502 53.1891 534.502 57.0159C534.502 57.8681 534.438 58.3826 534.293 58.8971H524.423C524.729 60.9552 526.369 62.0807 528.523 62.0807C530.194 62.0807 531.593 61.4697 532.38 60.8427L533.377 63.3027ZM524.295 56.5496H530.998C531.03 54.8774 529.873 53.575 527.863 53.575C525.774 53.575 524.665 54.7648 524.295 56.5496Z" fill="white"/>
<path d="M537.315 51.0024H540.804V52.3048C541.656 51.3883 543.263 50.6647 545.031 50.6647C548.793 50.6647 551.22 53.575 551.22 57.6269C551.22 61.7913 548.359 65.0071 543.986 65.0071C542.765 65.0071 541.591 64.7981 540.804 64.3318V70.7473H537.315V51.0024ZM540.82 55.4241V60.9552C541.752 61.5662 542.556 61.7431 543.697 61.7431C546.124 61.7431 547.523 59.9744 547.523 57.7073C547.523 55.5205 546.253 53.9448 543.938 53.9448C542.765 53.9448 541.656 54.4915 540.82 55.4241Z" fill="white"/>
<path d="M566.266 62.6274C565.109 64.171 563.051 64.991 560.833 64.991C556.396 64.991 553.422 62.129 553.422 57.8198C553.422 53.8483 556.332 50.6486 560.495 50.6486C562.746 50.6486 564.723 51.2275 565.993 52.4977L564.353 55.2633C563.324 54.2664 562.199 53.9287 560.945 53.9287C559 53.9287 557.152 55.4241 557.152 57.8198C557.152 60.2477 559.033 61.7431 561.106 61.7431C562.601 61.7431 563.742 61.0517 564.627 60.0709L566.266 62.6274Z" fill="white"/>
<path d="M569.063 64.6695V51.0024H572.551V59.6528L578.933 51.0024H582.421V64.6695H578.933V56.019L572.551 64.6695H569.063Z" fill="white"/>
<path d="M584.881 51.0024H597.339V54.4915H592.87V64.6695H589.382V54.4915H584.881V51.0024Z" fill="white"/>
<path d="M611.147 63.3027C609.781 64.4604 607.835 65.0071 605.923 65.0071C601.518 65.0071 598.576 62.1451 598.576 57.8359C598.576 53.8644 601.309 50.6647 605.81 50.6647C609.33 50.6647 612.272 53.1891 612.272 57.0159C612.272 57.8681 612.208 58.3826 612.063 58.8971H602.193C602.499 60.9552 604.138 62.0807 606.292 62.0807C607.964 62.0807 609.363 61.4697 610.15 60.8427L611.147 63.3027ZM602.065 56.5496H608.768C608.8 54.8774 607.643 53.575 605.633 53.575C603.56 53.575 602.434 54.7648 602.065 56.5496Z" fill="white"/>
<path d="M613.558 51.0024H626.016V54.4915H621.547V64.6695H618.059V54.4915H613.558V51.0024Z" fill="white"/>
<path d="M101.689 27.1252H95.1145V32.5437H93.6677V20.581H95.1145V25.7584H101.689V20.581H103.136V32.5437H101.689V27.1252Z" fill="white"/>
<path d="M106.222 25.3886C106.913 24.9545 107.83 24.6812 108.794 24.6812C110.98 24.6812 111.752 25.8228 111.752 27.8326V32.5598H110.434V31.5629C109.968 32.1418 109.244 32.6724 107.974 32.6724C106.576 32.6724 105.611 31.788 105.611 30.2927C105.611 28.717 106.865 27.8487 108.521 27.8487C109.116 27.8487 109.919 27.9613 110.434 28.3471C110.434 26.9161 110.209 25.9192 108.698 25.9192C107.765 25.9192 107.187 26.1604 106.576 26.482L106.222 25.3886ZM110.434 30.4374V29.4566C109.951 29.1189 109.373 28.9421 108.714 28.9421C107.894 28.9421 107.074 29.3119 107.074 30.2123C107.074 30.9519 107.572 31.4182 108.457 31.4182C109.469 31.4343 110.048 30.9037 110.434 30.4374Z" fill="white"/>
<path d="M114.018 24.858H115.385V31.2735H119.484V24.858H120.85V31.2735H122.136V34.4411H120.85V32.5598H114.018V24.858Z" fill="white"/>
<path d="M123.631 32.5438V24.8419H124.997V30.5661L129.45 24.8419H130.817V32.5438H129.45V26.8197L124.997 32.5438H123.631Z" fill="white"/>
<path d="M136.877 24.6812C139.336 24.6812 140.976 26.3855 140.976 28.7009C140.976 31.0163 139.336 32.7206 136.877 32.7206C134.417 32.7206 132.778 31.0163 132.778 28.7009C132.762 26.3855 134.417 24.6812 136.877 24.6812ZM136.877 31.4343C138.42 31.4343 139.529 30.3409 139.529 28.7009C139.529 27.093 138.42 25.9675 136.877 25.9675C135.366 25.9675 134.224 27.0769 134.224 28.7009C134.224 30.3088 135.334 31.4343 136.877 31.4343Z" fill="white"/>
<path d="M148.579 29.2958H144.303V32.5438H142.937V24.8419H144.303V28.0095H148.579V24.8419H149.946V32.5438H148.579V29.2958Z" fill="white"/>
<path d="M152.469 25.3886C153.16 24.9545 154.077 24.6812 155.041 24.6812C157.227 24.6812 157.999 25.8228 157.999 27.8326V32.5598H156.697V31.5629C156.231 32.1418 155.507 32.6724 154.237 32.6724C152.839 32.6724 151.874 31.788 151.874 30.2927C151.874 28.717 153.128 27.8487 154.784 27.8487C155.379 27.8487 156.183 27.9613 156.697 28.3471C156.697 26.9161 156.472 25.9192 154.961 25.9192C154.028 25.9192 153.45 26.1604 152.839 26.482L152.469 25.3886ZM156.697 30.4374V29.4566C156.215 29.1189 155.636 28.9421 154.977 28.9421C154.157 28.9421 153.337 29.3119 153.337 30.2123C153.337 30.9519 153.836 31.4182 154.72 31.4182C155.716 31.4343 156.295 30.9037 156.697 30.4374Z" fill="white"/>
<path d="M165.538 26.2247H162.837L162.757 27.5271C162.42 31.9006 161.246 32.6563 159.655 32.6563L159.558 31.3218C160.137 31.37 161.23 30.8072 161.423 27.2538L161.551 24.858H166.904V32.5598H165.538V26.2247Z" fill="white"/>
<path d="M169.364 24.858H170.73V27.1734H172.129C174.492 27.1734 175.167 28.4597 175.167 29.8264C175.167 31.1771 174.379 32.5598 171.952 32.5598H169.348V24.858H169.364ZM170.73 28.4436V31.2574H171.855C173.206 31.2574 173.72 30.759 173.72 29.8586C173.72 28.9421 173.19 28.4436 171.872 28.4436H170.73Z" fill="white"/>
<path d="M182.642 29.2958H178.366V32.5438H176.999V24.8419H178.366V28.0095H182.642V24.8419H184.008V32.5438H182.642V29.2958Z" fill="white"/>
<path d="M186.483 24.858H187.85V27.1734H189.12C191.483 27.1734 192.158 28.4597 192.158 29.8264C192.158 31.1771 191.37 32.5598 188.959 32.5598H186.483V24.858ZM187.85 28.4436V31.2574H188.846C190.213 31.2574 190.711 30.759 190.711 29.8586C190.711 28.9421 190.181 28.4436 188.863 28.4436H187.85ZM193.637 24.858H195.003V32.5598H193.637V24.858Z" fill="white"/>
<path d="M197.446 32.5437V24.8419H198.813V30.566L203.266 24.8419H204.632V32.5437H203.266V26.8196L198.813 32.5437H197.446ZM199.826 20.9187C199.89 21.8352 200.324 22.2693 201.144 22.2693C201.899 22.2693 202.317 21.8352 202.398 20.9187H203.683C203.683 22.2693 202.687 23.3144 201.16 23.3144C199.472 23.3144 198.556 22.2693 198.556 20.9187H199.826Z" fill="white"/>
<path d="M210.949 32.5438V24.8419H212.316V30.5661L216.768 24.8419H218.135V32.5438H216.768V26.8197L212.316 32.5438H210.949Z" fill="white"/>
<path d="M227.169 31.4343C226.526 32.2704 225.384 32.7206 224.211 32.7206C221.768 32.7206 220.096 31.1288 220.096 28.7009C220.096 26.4659 221.735 24.6812 223.986 24.6812C225.224 24.6812 226.301 24.9706 227.008 25.6941L226.381 26.7714C225.738 26.1765 224.983 25.9675 224.179 25.9675C222.796 25.9675 221.543 27.0769 221.543 28.7009C221.543 30.3892 222.796 31.4343 224.307 31.4343C225.224 31.4343 225.995 31.0163 226.51 30.4374L227.169 31.4343Z" fill="white"/>
<path d="M235.11 31.4343C234.467 32.2704 233.325 32.7206 232.152 32.7206C229.709 32.7206 228.037 31.1288 228.037 28.7009C228.037 26.4659 229.676 24.6812 231.927 24.6812C233.165 24.6812 234.242 24.9706 234.949 25.6941L234.322 26.7714C233.679 26.1765 232.923 25.9675 232.12 25.9675C230.737 25.9675 229.483 27.0769 229.483 28.7009C229.483 30.3892 230.737 31.4343 232.248 31.4343C233.165 31.4343 233.936 31.0163 234.451 30.4374L235.11 31.4343Z" fill="white"/>
<path d="M242.022 26.2247H239.321L239.241 27.5271C238.903 31.9006 237.73 32.6563 236.138 32.6563L236.042 31.3218C236.621 31.37 237.714 30.8072 237.907 27.2538L238.035 24.858H243.388V32.5598H242.022V26.2247Z" fill="white"/>
<path d="M252.342 31.7076C251.586 32.399 250.477 32.7206 249.448 32.7206C246.957 32.7206 245.333 31.1288 245.333 28.7009C245.333 26.4659 246.764 24.6812 249.304 24.6812C251.281 24.6812 252.872 26.08 252.872 28.2024C252.872 28.5723 252.84 28.8938 252.792 29.1189H246.876C246.989 30.566 248.05 31.4343 249.561 31.4343C250.558 31.4343 251.426 31.0966 251.924 30.6304L252.342 31.7076ZM246.78 28.0095H251.442C251.377 26.7393 250.558 25.9514 249.223 25.9514C247.825 25.9675 246.925 26.8357 246.78 28.0095Z" fill="white"/>
<path d="M253.371 31.2574H254.335C254.849 30.6143 255.38 28.9903 255.509 26.884L255.621 24.8419H260.878V31.2574H262.164V34.425H260.878V32.5438H254.657V34.425H253.371V31.2574ZM255.782 31.2574H259.511V26.1283H256.907L256.827 27.4146C256.65 29.3762 256.135 30.7912 255.782 31.2574Z" fill="white"/>
<path d="M267.227 24.6812C269.687 24.6812 271.326 26.3855 271.326 28.7009C271.326 31.0163 269.687 32.7206 267.227 32.7206C264.768 32.7206 263.128 31.0163 263.128 28.7009C263.128 26.3855 264.768 24.6812 267.227 24.6812ZM267.227 31.4343C268.77 31.4343 269.879 30.3409 269.879 28.7009C269.879 27.093 268.77 25.9675 267.227 25.9675C265.716 25.9675 264.575 27.0769 264.575 28.7009C264.575 30.3088 265.7 31.4343 267.227 31.4343Z" fill="white"/>
<path d="M273.287 24.858C273.946 24.858 274.959 24.7937 276.068 24.7937C278.222 24.7937 279.38 25.3886 279.38 26.7714C279.38 27.6718 278.769 28.3954 277.836 28.5401V28.5723C279.074 28.7974 279.637 29.4244 279.637 30.3892C279.637 31.8363 278.495 32.6241 276.1 32.6241C275.136 32.6241 273.978 32.5598 273.287 32.5598V24.858ZM274.654 25.9514V28.2507H276.374C277.274 28.2507 277.933 27.8005 277.933 27.0608C277.933 26.2247 277.161 25.9192 276.165 25.9192C275.57 25.8871 275.007 25.9353 274.654 25.9514ZM274.654 29.0868V31.4504C275.072 31.4665 275.618 31.4986 276.229 31.4986C277.499 31.4986 278.19 31.0645 278.19 30.2605C278.19 29.4566 277.531 29.0868 276.293 29.0868H274.654Z" fill="white"/>
<path d="M281.791 25.3886C282.482 24.9545 283.398 24.6812 284.363 24.6812C286.549 24.6812 287.321 25.8228 287.321 27.8326V32.5598H286.018V31.5629C285.552 32.1418 284.829 32.6724 283.559 32.6724C282.161 32.6724 281.196 31.788 281.196 30.2927C281.196 28.717 282.45 27.8487 284.106 27.8487C284.7 27.8487 285.504 27.9613 286.018 28.3471C286.018 26.9161 285.793 25.9192 284.266 25.9192C283.334 25.9192 282.755 26.1604 282.144 26.482L281.791 25.3886ZM286.002 30.4374V29.4566C285.52 29.1189 284.941 28.9421 284.282 28.9421C283.463 28.9421 282.643 29.3119 282.643 30.2123C282.643 30.9519 283.141 31.4182 284.025 31.4182C285.038 31.4343 285.617 30.9037 286.002 30.4374Z" fill="white"/>
<path d="M288.623 24.858H295.631V26.2247H292.818V32.5598H291.452V26.2247H288.639V24.858H288.623Z" fill="white"/>
<path d="M303.363 31.7076C302.608 32.399 301.498 32.7206 300.47 32.7206C297.978 32.7206 296.355 31.1288 296.355 28.7009C296.355 26.4659 297.785 24.6812 300.325 24.6812C302.302 24.6812 303.894 26.08 303.894 28.2024C303.894 28.5723 303.861 28.8938 303.813 29.1189H297.898C298.01 30.566 299.071 31.4343 300.582 31.4343C301.579 31.4343 302.447 31.0966 302.945 30.6304L303.363 31.7076ZM297.817 28.0095H302.479C302.415 26.7393 301.595 25.9514 300.261 25.9514C298.846 25.9675 297.962 26.8357 297.817 28.0095Z" fill="white"/>
<path d="M310.725 26.2247H308.025L307.944 27.5271C307.607 31.9006 306.433 32.6563 304.858 32.6563L304.762 31.3218C305.34 31.37 306.433 30.8072 306.626 27.2538L306.755 24.858H312.108V32.5598H310.741V26.2247H310.725Z" fill="white"/>
<path d="M314.551 24.858H315.918V27.1734H317.316C319.679 27.1734 320.354 28.4597 320.354 29.8264C320.354 31.1771 319.567 32.5598 317.139 32.5598H314.535V24.858H314.551ZM315.918 28.4436V31.2574H317.043C318.393 31.2574 318.907 30.759 318.907 29.8586C318.907 28.9421 318.377 28.4436 317.059 28.4436H315.918Z" fill="white"/>
<path d="M328.665 31.4343C328.022 32.2704 326.881 32.7206 325.707 32.7206C323.264 32.7206 321.592 31.1288 321.592 28.7009C321.592 26.4659 323.232 24.6812 325.482 24.6812C326.72 24.6812 327.797 24.9706 328.504 25.6941L327.877 26.7714C327.234 26.1765 326.479 25.9675 325.675 25.9675C324.293 25.9675 323.039 27.0769 323.039 28.7009C323.039 30.3892 324.293 31.4343 325.804 31.4343C326.72 31.4343 327.491 31.0163 328.006 30.4374L328.665 31.4343Z" fill="white"/>
<path d="M330.449 24.858H331.816V32.5598H330.449V24.858ZM333.809 28.524L337.506 32.5438H335.609L332.137 28.6044L335.384 24.8419H337.184L333.809 28.524Z" fill="white"/>
<path d="M338.953 32.5438V24.8419H340.319V30.5661L344.772 24.8419H346.138V32.5438H344.772V26.8197L340.319 32.5438H338.953Z" fill="white"/>
<path d="M348.598 32.5437V24.8419H349.964V30.566L354.417 24.8419H355.783V32.5437H354.417V26.8196L349.964 32.5437H348.598ZM350.977 20.9187C351.041 21.8352 351.475 22.2693 352.295 22.2693C353.05 22.2693 353.468 21.8352 353.549 20.9187H354.835C354.835 22.2693 353.838 23.3144 352.311 23.3144C350.623 23.3144 349.707 22.2693 349.707 20.9187H350.977Z" fill="white"/>
<path d="M17.2482 47.4168V20.6454H30.4295V48.285C30.4295 52.4012 33.1301 56.63 38.4669 56.63C43.7395 56.63 46.44 52.4012 46.44 48.285V20.6454H59.6213V47.3525C59.6213 58.0289 52.9342 68.5123 38.483 68.5123C23.9996 68.5284 17.2482 58.0289 17.2482 47.4168Z" fill="white"/>
<path d="M72.5455 4.45386H66.0834L61.7754 5.62763V7.1712H47.6778V5.54723L43.3697 3.87502H39.8654L39.1421 3.47305C39.1582 3.39266 39.1903 3.32834 39.1903 3.24794C39.1903 2.94244 38.9974 2.6691 38.7241 2.57263V0H38.1776V2.57263C37.9043 2.68518 37.7114 2.94244 37.7114 3.24794C37.7114 3.32834 37.7275 3.40873 37.7597 3.47305L37.0202 3.87502H33.3552L29.2561 5.61155V7.1712H15.0621V5.64371L10.7701 4.45386H4.29197L0 5.64371V11.8019V49.909C0 70.9081 17.0875 88 38.0811 88H38.7884C59.7821 88 76.8696 70.9081 76.8696 49.909V7.97515H76.8535V5.64371L72.5455 4.45386ZM71.372 49.909C71.372 67.8853 56.76 82.501 38.7884 82.501H38.0811C20.1095 82.501 5.49757 67.8853 5.49757 49.909V12.4129H71.372V49.909Z" fill="white"/>
<path d="M20.206 64.9428L22.7297 67.4672L22.0707 68.1264L21.1544 67.2099L18.7593 69.6057L18.0681 68.9143L20.4632 66.5185L19.5469 65.602L20.206 64.9428Z" fill="white"/>
<path d="M25.1892 69.1233C26.2823 69.8308 26.652 71.085 25.8965 72.2426C25.1892 73.336 23.855 73.5772 22.7619 72.8697C21.6527 72.1622 21.2991 70.9081 22.0546 69.7504C22.7297 68.6892 24.0318 68.3676 25.1892 69.1233ZM23.2763 72.0818C23.9675 72.5321 24.6426 72.2748 25.0284 71.6638C25.4625 71.0046 25.2856 70.2649 24.6909 69.8951C24.0961 69.5092 23.3727 69.6539 22.9387 70.3132C22.5368 70.9402 22.6976 71.712 23.2763 72.0818Z" fill="white"/>
<path d="M27.9701 70.8438L28.9025 71.1654L29.5776 73.3039L31.3458 71.9854L32.2299 72.2748L30.8636 76.3749L29.9312 76.0534L30.7993 73.4486L29.1275 74.6545L28.9989 74.6063L28.4041 72.6446L27.5361 75.2333L26.6038 74.9117L27.9701 70.8438Z" fill="white"/>
<path d="M33.3712 73.6254C33.4516 72.9662 34.0464 72.4517 34.9144 72.5642C35.461 72.6285 35.8789 72.8697 36.12 73.1913L35.5092 73.8505C35.3484 73.6576 35.2198 73.529 34.8983 73.4807C34.6251 73.4486 34.4482 73.545 34.4322 73.738C34.3357 74.4455 36.1522 74.4937 35.9753 75.8926C35.8789 76.6322 35.1716 77.0663 34.3518 76.9698C33.7731 76.9055 33.1462 76.5679 32.9854 76.0855L33.6284 75.4906C33.8374 75.8282 34.1911 76.0212 34.4804 76.0534C34.7376 76.0855 34.8983 75.973 34.9305 75.78C34.9787 75.1529 33.1944 75.0082 33.3712 73.6254Z" fill="white"/>
<path d="M37.6632 72.9019L38.6438 72.8858L38.692 74.767L40.0583 72.8536L41.2318 72.8215L39.6565 74.8474L41.4569 77.1306L40.203 77.1628L38.692 75.1529L38.7402 77.1789L37.7597 77.1949L37.6632 72.9019Z" fill="white"/>
<path d="M42.4695 74.558L44.077 74.3008L44.2056 75.1529L42.5981 75.4102L42.4695 74.558Z" fill="white"/>
<path d="M45.7649 71.9211L46.4079 71.7442L47.5813 75.8926L46.6972 76.1498L45.8774 73.2556L45.5398 73.6576L44.8647 73.0466L45.7649 71.9211Z" fill="white"/>
<path d="M49.0281 74.2364C48.787 73.7058 48.9156 73.2556 49.1728 72.9662V72.9501C48.8513 72.934 48.4655 72.7411 48.2404 72.2587C47.9511 71.6477 48.3369 70.9563 49.0763 70.6187C49.8157 70.281 50.5873 70.4257 50.8767 71.0367C51.0535 71.4226 51.0214 71.8728 50.7481 72.2105V72.2266C51.1339 72.1622 51.6 72.3391 51.8251 72.8376C52.1627 73.5772 51.7769 74.2686 50.9571 74.6384C50.1212 75.0404 49.3335 74.9117 49.0281 74.2364ZM49.8157 72.1462C50.0729 72.0175 50.1051 71.7764 50.0247 71.5995C49.9283 71.3744 49.7193 71.3261 49.43 71.4548C49.1406 71.5834 49.0924 71.8085 49.1728 71.9854C49.2531 72.1623 49.4621 72.2909 49.7354 72.1623L49.8157 72.1462ZM50.1372 73.0144C49.88 73.127 49.7032 73.3843 49.8318 73.6576C49.9283 73.8666 50.1694 73.9952 50.5391 73.8184C50.9571 73.6254 50.9731 73.3842 50.8606 73.1752C50.732 72.9019 50.4587 72.8536 50.2015 72.9823L50.1372 73.0144Z" fill="white"/>
<path d="M51.2303 69.5896L53.529 67.9496L53.8987 68.4641L54.8471 72.307L54.0273 72.8858L53.1754 69.3324L51.7608 70.3453L51.2303 69.5896Z" fill="white"/>
<path d="M56.535 69.5896C56.117 69.1876 56.0849 68.7214 56.2135 68.3515L56.1974 68.3355C55.892 68.4319 55.458 68.3837 55.0722 68.0139C54.5899 67.5476 54.7025 66.7597 55.2651 66.1809C55.8277 65.602 56.6154 65.4573 57.0976 65.9397C57.403 66.2291 57.5316 66.6793 57.387 67.0974L57.403 67.1135C57.7406 66.9205 58.2389 66.9205 58.6247 67.3064C59.2034 67.8692 59.0748 68.657 58.4479 69.3002C57.837 69.9594 57.0494 70.1041 56.535 69.5896ZM56.535 67.3546C56.744 67.1456 56.6797 66.9044 56.535 66.7758C56.3582 66.615 56.1492 66.6311 55.9241 66.8401C55.6991 67.0652 55.7312 67.2903 55.8759 67.435C56.0206 67.5637 56.2456 67.628 56.4707 67.4029L56.535 67.3546ZM57.1298 68.046C56.9369 68.239 56.8565 68.5445 57.0815 68.7535C57.2583 68.9143 57.5155 68.9625 57.8049 68.657C58.1264 68.3194 58.0621 68.0943 57.8853 67.9335C57.6602 67.7245 57.403 67.7727 57.1941 67.9817L57.1298 68.046Z" fill="white"/>
</g>
<defs>
<clipPath id="clip0_12_4">
<rect width="626" height="88" fill="white"/>
</clipPath>
</defs>
</svg>
